<?xml version="1.0" standalone="no"?>
<!DOCTYPE svg PUBLIC "-//W3C//DTD SVG 20010904//EN"
 "http://www.w3.org/TR/2001/REC-SVG-20010904/DTD/svg10.dtd">
<svg version="1.0" xmlns="http://www.w3.org/2000/svg"
 width="288.000000pt" height="288.000000pt" viewBox="0 0 288.000000 288.000000"
 preserveAspectRatio="xMidYMid meet">
<metadata>
Created by potrace 1.14, written by Peter Selinger 2001-2017
</metadata>
<g transform="translate(0.000000,288.000000) scale(0.100000,-0.100000)"
fill="#000000" stroke="none">
<path d="M2709 2737 c11 -13 17 -15 28 -6 7 7 11 15 7 18 -4 3 -9 0 -11 -7 -4
-10 -8 -10 -21 0 -15 12 -16 11 -3 -5z"/>
<path d="M2673 2725 c0 -8 4 -15 9 -15 4 0 8 4 8 9 0 6 -4 12 -8 15 -5 3 -9
-1 -9 -9z"/>
<path d="M2757 2733 c-13 -12 -7 -25 9 -19 8 3 12 2 9 -4 -3 -5 -19 -7 -35 -3
-18 3 -36 0 -45 -7 -8 -7 -15 -9 -15 -5 0 4 -6 2 -13 -4 -8 -6 -17 -8 -20 -4
-4 3 -7 4 -7 1 0 -3 8 -12 17 -19 14 -12 16 -12 8 0 -6 10 -4 12 4 7 9 -6 8
-13 -5 -27 -13 -15 -20 -16 -31 -8 -11 9 -12 9 -7 -4 3 -10 -3 -20 -18 -28
-22 -12 -22 -12 -3 -20 16 -6 17 -8 3 -8 -9 -1 -20 4 -24 10 -4 7 -13 1 -24
-16 -10 -15 -20 -26 -24 -26 -17 3 -18 -1 0 -20 14 -15 15 -20 4 -17 -8 2 -14
-3 -12 -10 2 -9 -2 -11 -10 -6 -22 14 -37 13 -31 -2 3 -8 9 -12 13 -9 5 3 11
1 14 -4 7 -11 -13 -9 -33 3 -11 7 -13 5 -8 -7 5 -12 0 -15 -21 -12 -15 2 -21
2 -14 -1 17 -8 15 -27 -2 -21 -10 4 -13 1 -9 -8 3 -8 9 -12 14 -9 5 3 9 0 9
-5 0 -16 -16 -13 -30 4 -7 8 -18 15 -24 15 -6 0 -4 -5 4 -10 13 -9 13 -11 0
-21 -13 -9 -12 -10 2 -5 10 3 20 1 23 -3 3 -5 -8 -8 -25 -7 -23 2 -27 -1 -18
-11 5 -7 15 -10 21 -6 6 3 7 1 3 -5 -5 -9 -13 -9 -27 -1 -12 6 -22 9 -23 7 -1
-2 -8 -12 -16 -23 -14 -19 -14 -19 5 -5 13 9 16 10 8 1 -6 -7 -9 -21 -6 -30 3
-9 1 -12 -4 -6 -4 6 -17 17 -27 25 -19 15 -19 14 -1 -13 10 -15 14 -27 9 -25
-5 2 -9 -1 -9 -7 0 -5 4 -9 8 -7 5 1 6 -2 2 -8 -4 -6 -13 -5 -25 2 -11 7 -23
8 -27 4 -4 -5 -2 -11 5 -13 6 -3 12 -9 12 -14 0 -5 -11 -4 -24 2 -17 8 -29 8
-42 0 -17 -11 -16 -11 5 -5 16 4 21 3 16 -5 -4 -7 -1 -20 6 -29 10 -12 6 -11
-10 3 l-24 20 13 -25 c13 -25 13 -25 -7 -7 -20 17 -20 17 -16 -8 3 -14 1 -25
-6 -25 -5 0 -8 6 -5 14 3 8 1 17 -5 21 -7 4 -8 0 -4 -11 5 -14 3 -16 -13 -10
-15 6 -14 2 6 -20 l25 -27 -30 19 c-16 10 -26 14 -22 7 11 -18 -12 -26 -31
-12 -9 8 -6 1 7 -14 14 -15 21 -30 18 -34 -4 -3 -7 -1 -7 5 0 7 -9 12 -19 12
-20 0 -35 -25 -32 -52 1 -10 -3 -18 -9 -18 -6 0 -9 4 -6 8 2 4 0 14 -6 22 -8
12 -9 12 -4 -2 3 -10 0 -18 -6 -18 -7 0 -7 -4 0 -13 9 -10 5 -13 -16 -13 -18
1 -27 -4 -27 -14 0 -8 -5 -15 -12 -15 -13 0 -28 -13 -28 -24 0 -14 -34 -42
-56 -46 -12 -3 -24 -7 -28 -10 -3 -4 6 -4 21 -1 18 3 31 -1 40 -12 12 -16 11
-16 -6 -2 -18 13 -19 13 -14 -1 4 -9 1 -16 -8 -16 -7 0 -10 5 -7 10 3 6 1 7
-5 3 -7 -4 -22 -9 -33 -11 -12 -3 -24 -7 -28 -10 -3 -4 6 -4 20 -2 19 4 25 1
25 -13 0 -10 -3 -17 -7 -14 -10 6 -30 -22 -21 -31 4 -5 1 -5 -6 -1 -11 7 -10
11 2 25 14 15 14 18 2 18 -8 0 -14 -5 -13 -11 1 -6 -6 -10 -16 -9 -17 1 -16
-2 5 -25 13 -15 15 -21 6 -13 -20 15 -42 5 -34 -15 3 -8 0 -11 -10 -7 -17 6
-19 -13 -1 -21 6 -2 3 -4 -8 -3 -11 2 -26 6 -32 10 -8 5 -13 4 -13 -2 0 -6 4
-11 9 -11 5 0 11 -6 14 -14 4 -9 0 -12 -13 -9 -24 6 -35 -14 -18 -35 12 -16
11 -16 -7 -2 -11 8 -23 20 -27 25 -5 6 -8 6 -8 -2 0 -6 6 -18 14 -25 11 -12 9
-16 -11 -25 -19 -9 -22 -9 -14 0 7 9 7 17 -1 27 -8 13 -9 12 -5 -1 3 -9 0 -22
-6 -28 -9 -9 -8 -14 3 -21 13 -8 12 -10 -3 -10 -10 0 -15 -4 -12 -10 3 -5 2
-10 -3 -10 -12 0 -12 49 -1 56 5 3 9 10 9 17 0 6 -7 1 -16 -11 -8 -12 -13 -26
-10 -31 3 -5 -3 -11 -14 -14 -11 -3 -19 -11 -18 -19 2 -7 -2 -12 -9 -11 -8 2
-10 -4 -6 -14 4 -10 2 -14 -4 -10 -13 8 -36 -17 -25 -28 4 -5 -2 -5 -13 -1
-15 5 -17 4 -8 -5 13 -13 36 -3 27 13 -5 7 -2 8 6 3 9 -6 11 -4 5 5 -5 8 -4
11 3 6 6 -3 15 2 21 11 6 10 11 13 11 8 0 -6 -18 -31 -40 -55 -32 -35 -42 -42
-52 -31 -11 10 -10 11 3 6 10 -4 20 -2 24 4 4 7 0 8 -11 4 -13 -5 -15 -3 -9 7
5 9 4 11 -3 6 -14 -9 -36 -47 -25 -44 7 3 13 -5 13 -17 0 -3 -9 -1 -20 5 -26
14 -25 6 3 -21 l22 -21 -25 12 c-14 7 -28 17 -31 23 -4 5 -7 -3 -7 -18 1 -39
-34 -80 -65 -79 -24 0 -25 -3 -22 -40 3 -31 2 -37 -6 -23 -6 9 -8 21 -5 25 3
5 -1 9 -8 9 -8 0 -11 -9 -8 -22 2 -15 -3 -28 -17 -37 -11 -8 -18 -19 -13 -24
4 -5 -2 -1 -14 9 -11 9 -24 14 -27 10 -4 -3 -7 -1 -7 5 0 7 -4 12 -9 12 -5 0
-7 -10 -5 -22 2 -13 1 -16 -2 -8 -4 8 -13 19 -21 23 -7 5 -11 12 -8 17 7 11
-24 22 -37 13 -7 -3 -8 -1 -4 5 4 7 2 12 -5 12 -7 0 -10 3 -7 6 4 3 16 1 27
-5 17 -9 20 -9 15 3 -3 9 -9 15 -12 14 -21 -2 -32 3 -26 14 5 8 2 9 -11 4 -16
-6 -16 -4 -4 11 9 11 10 14 2 9 -8 -4 -13 -2 -14 6 -1 7 -5 2 -9 -12 -7 -22
-8 -20 -7 12 0 21 -3 41 -8 45 -4 4 -6 1 -3 -8 4 -9 -2 -20 -13 -27 -10 -7
-19 -8 -19 -3 0 5 6 12 13 14 9 4 9 8 -3 16 -8 5 -18 7 -24 4 -5 -3 -6 -1 -2
6 4 6 12 8 18 5 5 -4 4 4 -2 17 -17 32 -17 32 -24 14 -3 -9 -2 -13 4 -10 6 3
10 2 10 -3 0 -6 -6 -12 -14 -15 -10 -4 -13 3 -11 29 1 19 -2 34 -8 34 -5 0 -7
-7 -4 -15 4 -8 2 -17 -4 -20 -5 -4 -9 -3 -8 2 1 4 1 17 -1 28 l-1 20 -10 -20
c-8 -17 -9 -16 -5 8 2 15 -1 30 -6 33 -4 3 -6 9 -3 14 7 11 -22 7 -32 -5 -4
-4 -2 -5 4 -1 9 5 11 2 6 -9 -8 -23 -21 -1 -17 31 1 13 -2 22 -6 19 -5 -3 -11
4 -15 15 -6 20 -7 20 -25 -2 l-19 -23 9 32 c6 24 5 32 -3 30 -7 -1 -11 3 -10
9 3 14 -28 14 -46 0 -11 -8 -13 -8 -7 2 4 7 2 12 -6 12 -9 0 -9 3 2 10 10 6
11 10 3 10 -7 0 -13 4 -13 10 0 5 7 7 16 3 9 -3 13 -12 9 -22 -5 -13 -4 -14 7
-3 11 11 10 16 -6 28 -17 12 -22 12 -37 -2 -12 -10 -19 -12 -24 -4 -3 6 -1 9
6 8 7 -2 14 7 15 19 1 12 -3 20 -8 17 -4 -3 -6 -9 -4 -13 3 -4 -4 -8 -15 -8
-17 -2 -18 0 -4 14 11 11 13 19 5 27 -5 7 -6 17 -2 21 4 5 2 5 -5 1 -6 -3 -15
-2 -18 4 -5 8 -11 8 -20 0 -9 -8 -12 -4 -10 15 2 14 -1 23 -6 19 -5 -3 -12 2
-15 10 -3 9 -12 16 -20 16 -13 0 -18 12 -15 33 0 4 -5 6 -11 5 -7 -2 -12 3
-10 10 1 8 -2 11 -7 8 -12 -8 -41 3 -41 15 0 4 6 6 14 3 8 -3 17 -1 20 4 6 10
-48 7 -65 -3 -5 -4 -6 1 -3 9 3 9 10 14 14 11 5 -3 11 -1 14 4 4 5 -5 8 -19 6
-20 -2 -23 0 -14 12 9 10 9 12 -3 8 -8 -3 -21 1 -28 9 -7 9 -17 13 -23 9 -5
-3 -7 -1 -3 5 3 6 -1 17 -9 25 -8 9 -15 19 -15 24 0 4 15 -10 33 -31 26 -31
36 -36 42 -25 4 8 5 11 0 7 -7 -7 -35 14 -35 26 0 3 -9 15 -19 25 -13 13 -21
16 -24 8 -2 -7 -8 -9 -12 -5 -4 4 -2 14 4 22 8 10 9 16 1 21 -6 4 -9 1 -8 -5
2 -7 -5 -14 -15 -15 -15 -3 -16 -1 -6 11 6 8 9 17 5 21 -3 3 -6 0 -6 -7 0 -8
-11 1 -24 19 -16 21 -26 28 -29 19 -5 -13 -11 17 -7 37 1 6 -4 5 -11 -2 -18
-18 -41 -4 -33 21 6 18 5 19 -9 8 -12 -10 -17 -10 -23 -1 -4 8 -3 9 4 5 8 -5
12 0 12 13 0 11 -5 23 -12 27 -8 5 -9 1 -4 -12 5 -15 4 -16 -5 -7 -6 6 -19 9
-28 6 -13 -4 -13 -3 -2 5 19 14 22 52 4 45 -10 -4 -11 -9 -2 -19 7 -9 8 -14 1
-14 -14 0 -23 26 -16 48 5 14 4 15 -5 2 -9 -13 -11 -13 -12 0 -1 8 -1 19 0 23
1 5 -3 6 -9 2 -6 -3 -8 -11 -5 -16 3 -5 -1 -6 -10 -3 -12 5 -13 10 -4 20 8 10
5 12 -18 9 l-28 -5 28 16 c23 12 30 34 11 34 -3 0 -3 -4 0 -9 3 -5 -1 -12 -10
-15 -21 -8 -26 -8 -20 2 3 5 -8 8 -25 8 -16 0 -29 -4 -29 -8 0 -5 9 -6 20 -3
12 4 20 2 20 -5 0 -6 -4 -8 -10 -5 -5 3 -10 -1 -10 -9 0 -9 -4 -16 -10 -16 -5
0 -6 -7 -3 -17 4 -10 2 -14 -4 -10 -6 4 -16 0 -23 -8 -10 -12 -8 -14 7 -10 10
2 27 7 38 10 11 4 5 -4 -14 -19 -19 -14 -29 -26 -22 -26 10 0 11 -3 2 -13 -8
-10 -7 -14 3 -14 8 0 13 8 11 19 -6 27 2 22 19 -13 13 -26 13 -29 1 -19 -11 9
-15 10 -15 1 0 -7 -4 -10 -9 -7 -5 3 -15 -2 -22 -12 -13 -15 -12 -16 4 -3 14
11 17 11 17 0 0 -10 3 -11 8 -3 5 8 11 7 22 -4 13 -14 12 -15 -3 -9 -11 4 -17
2 -16 -6 3 -25 -1 -36 -14 -33 -6 1 -9 1 -4 -1 4 -3 7 -9 7 -14 0 -6 -6 -7
-12 -3 -7 4 -10 4 -6 -1 4 -4 2 -15 -5 -24 -11 -14 -10 -14 5 -2 21 15 23 9 7
-22 -9 -19 -7 -18 10 3 11 14 23 21 27 17 4 -4 2 -7 -5 -7 -7 0 -10 -4 -6 -9
3 -5 1 -12 -4 -16 -7 -4 -6 -14 1 -30 6 -13 15 -22 21 -18 6 3 7 1 3 -5 -3 -6
-19 -9 -34 -6 -18 3 -23 2 -13 -5 11 -7 11 -10 0 -15 -8 -3 -3 -3 11 1 21 5
23 4 13 -9 -7 -8 -10 -18 -6 -21 3 -4 12 1 20 11 13 15 13 15 3 -5 -5 -12 -10
-26 -9 -30 3 -19 -2 -33 -12 -33 -8 0 -7 6 2 18 13 15 12 16 -4 3 -12 -10 -15
-17 -7 -25 13 -13 13 -29 1 -21 -5 3 -13 0 -17 -6 -4 -8 -3 -9 5 -5 8 5 10 0
7 -18 -3 -14 0 -28 5 -31 5 -4 9 -11 9 -16 0 -6 -4 -8 -9 -4 -5 3 -12 1 -15
-4 -4 -6 7 -8 26 -6 24 3 29 2 18 -5 -13 -8 -13 -12 -1 -32 13 -21 13 -22 -2
-9 -21 17 -22 3 -1 -29 13 -21 11 -20 -9 3 -22 27 -24 27 -38 10 -12 -16 -12
-17 2 -6 13 11 18 9 26 -10 12 -26 7 -47 -10 -43 -7 1 -9 1 -4 -1 4 -3 7 -9 7
-14 0 -6 -6 -7 -12 -3 -7 4 -10 4 -6 -1 4 -4 2 -15 -5 -24 -11 -14 -10 -14 6
-2 17 13 18 13 15 -4 -1 -11 2 -20 9 -20 7 0 18 -7 25 -15 11 -12 11 -12 -4
-1 -13 10 -18 10 -18 2 0 -7 -5 -9 -12 -5 -7 4 -8 3 -4 -5 4 -6 12 -9 17 -6 5
3 6 -1 3 -9 -3 -9 -10 -14 -14 -11 -4 2 -6 -9 -4 -26 2 -18 0 -28 -6 -24 -16
10 -12 -1 6 -15 12 -11 15 -11 12 0 -2 7 4 15 12 17 9 3 11 1 5 -4 -15 -12
-18 -43 -3 -39 7 1 10 1 6 -1 -5 -3 -8 -11 -8 -19 0 -8 -4 -14 -10 -14 -5 0
-7 6 -4 13 3 8 -3 20 -13 28 -16 13 -17 12 -5 -3 8 -9 11 -22 8 -27 -4 -5 -2
-12 4 -16 5 -3 10 -11 10 -16 0 -6 -4 -8 -9 -4 -5 3 -13 0 -17 -6 -4 -8 -3 -9
5 -5 8 5 10 0 7 -18 -3 -14 0 -28 5 -31 5 -4 9 -11 9 -16 0 -6 -4 -8 -9 -4 -5
3 -12 1 -15 -4 -4 -6 7 -8 26 -6 22 3 28 1 19 -4 -8 -5 -11 -16 -8 -26 4 -9 3
-14 -3 -10 -17 10 -11 -12 8 -31 16 -17 16 -18 -1 -11 -11 4 -17 2 -16 -6 3
-25 -1 -36 -13 -33 -7 1 -10 1 -5 -1 4 -3 7 -9 7 -14 0 -6 -6 -7 -12 -3 -7 4
-10 4 -6 -1 4 -4 2 -15 -5 -24 -11 -14 -10 -14 6 -2 20 15 22 9 6 -22 -9 -19
-7 -18 10 3 11 14 23 21 27 17 4 -4 2 -7 -5 -7 -7 0 -10 -4 -6 -9 3 -5 1 -12
-4 -16 -7 -4 -6 -14 1 -30 6 -13 15 -22 21 -18 6 3 7 1 3 -5 -3 -6 -19 -9 -34
-6 -18 3 -23 2 -13 -5 11 -7 11 -10 0 -15 -8 -3 -3 -3 11 1 21 5 23 4 13 -9
-7 -8 -10 -18 -6 -21 3 -4 12 1 20 11 13 15 13 15 3 -5 -5 -12 -10 -26 -9 -30
3 -19 -2 -33 -12 -33 -8 0 -7 6 2 18 13 15 12 16 -4 3 -12 -10 -15 -17 -7 -25
13 -13 13 -29 1 -21 -5 3 -13 0 -17 -6 -4 -8 -3 -9 5 -5 8 5 10 0 7 -18 -3
-14 0 -28 5 -31 5 -4 9 -11 9 -16 0 -6 -4 -8 -9 -4 -5 3 -12 1 -15 -4 -4 -6 7
-8 26 -6 24 3 29 2 18 -5 -13 -8 -13 -12 -1 -32 13 -21 13 -22 -2 -9 -21 17
-22 3 -1 -29 13 -21 11 -20 -9 3 -22 27 -24 27 -38 10 -12 -16 -12 -17 2 -6
13 11 18 9 26 -10 12 -26 7 -47 -10 -43 -7 1 -9 1 -4 -1 4 -3 7 -9 7 -14 0 -6
-6 -7 -13 -3 -6 4 -9 4 -5 -1 4 -4 2 -15 -5 -24 -11 -14 -10 -14 6 -2 17 13
18 13 15 -4 -1 -11 2 -20 9 -20 7 0 18 -7 25 -15 11 -12 11 -12 -4 -1 -13 10
-18 10 -18 2 0 -7 -5 -9 -12 -5 -7 4 -8 3 -4 -5 4 -6 12 -9 17 -6 5 3 6 -1 3
-9 -3 -9 -10 -14 -14 -11 -4 2 -6 -9 -4 -26 2 -18 0 -28 -6 -24 -16 10 -12 -1
6 -15 12 -11 15 -11 12 0 -2 7 4 15 12 17 9 3 11 1 5 -4 -15 -12 -18 -43 -3
-39 7 1 10 1 6 -1 -5 -3 -8 -11 -8 -19 0 -8 -4 -14 -10 -14 -5 0 -7 6 -4 13 3
8 -3 20 -13 28 -16 13 -17 12 -5 -3 8 -9 11 -22 8 -27 -4 -5 -2 -12 4 -16 5
-3 10 -11 10 -16 0 -6 -4 -8 -9 -4 -5 3 -13 0 -17 -6 -4 -8 -3 -9 5 -5 8 5 10
0 7 -18 -3 -14 0 -28 5 -31 5 -4 9 -11 9 -16 0 -6 -4 -8 -9 -4 -5 3 -12 1 -15
-4 -4 -6 8 -8 26 -6 18 2 27 1 21 -2 -7 -2 -13 -11 -13 -19 0 -8 -5 -14 -11
-14 -5 0 -7 5 -4 10 3 6 2 10 -4 10 -11 0 -8 -46 3 -58 4 -4 6 -1 4 7 -2 7 4
16 12 18 13 4 13 3 0 -6 -8 -6 -11 -11 -6 -11 5 0 2 -8 -6 -17 -24 -29 -28
-40 -14 -40 8 0 12 7 9 16 -4 14 -4 14 6 1 6 -8 8 -23 5 -34 -4 -13 -3 -16 6
-11 9 6 11 4 5 -5 -6 -10 -11 -10 -20 3 -7 10 -16 17 -20 17 -4 0 -2 -7 6 -16
10 -13 10 -17 -2 -25 -10 -8 -8 -8 10 -4 17 5 22 4 19 -6 -3 -8 -16 -13 -29
-12 -15 1 -17 0 -6 -3 9 -3 17 -12 17 -19 0 -7 6 -15 13 -18 9 -3 9 -7 -1 -20
-12 -14 -11 -16 7 -14 12 1 21 6 21 12 0 6 3 7 8 0 11 -15 42 -18 42 -4 0 7 3
10 6 7 3 -4 1 -15 -5 -27 -8 -13 -8 -22 -1 -26 6 -4 9 -1 8 7 -2 8 8 13 27 14
58 2 59 2 44 21 -12 15 -12 16 1 8 23 -14 52 -17 45 -4 -4 6 2 5 14 -3 12 -7
21 -16 21 -20 0 -5 4 -8 10 -8 5 0 7 7 4 15 -5 11 -2 13 10 9 10 -4 16 -1 16
7 0 7 3 9 6 6 4 -4 2 -13 -5 -20 -8 -11 -6 -18 12 -33 l22 -19 -18 21 c-16 20
-16 22 -2 28 30 11 45 7 40 -12 -3 -9 1 -3 9 13 8 17 15 25 16 18 0 -7 10 -18
22 -24 21 -11 22 -11 9 5 -12 14 -12 16 4 10 11 -5 16 -3 12 2 -3 5 3 10 13
10 10 0 16 -5 13 -10 -4 -5 1 -7 10 -3 9 3 22 0 30 -7 7 -8 28 -13 45 -11 18
1 35 -1 38 -6 3 -5 11 -9 17 -9 7 0 4 5 -5 11 -10 5 -18 18 -17 27 0 11 2 12
6 4 2 -7 14 -17 26 -24 21 -11 21 -10 7 7 -11 14 -11 17 -1 11 8 -5 17 -3 22
5 7 12 9 12 9 0 0 -10 3 -11 13 -2 10 8 14 7 14 -3 0 -8 -8 -13 -19 -11 -10 2
-18 -1 -18 -7 0 -5 6 -8 14 -5 7 3 19 0 26 -6 10 -9 11 -9 6 0 -7 12 48 13 60
0 4 -4 12 -7 18 -7 6 0 3 5 -6 11 -10 5 -18 18 -17 27 0 11 2 12 6 4 2 -7 14
-17 26 -24 21 -11 21 -10 7 7 -11 14 -11 17 -1 11 8 -5 17 -3 22 5 7 12 9 12
9 0 0 -10 3 -11 13 -2 10 8 14 7 14 -3 0 -8 -8 -13 -19 -11 -10 2 -18 -1 -18
-7 0 -5 6 -8 14 -5 7 3 19 0 26 -6 10 -9 11 -9 6 1 -4 6 -2 12 3 12 6 0 11 8
12 18 0 10 3 12 6 4 2 -7 14 -17 26 -24 20 -10 21 -10 8 6 -12 14 -12 16 4 10
13 -5 16 -4 11 4 -11 18 0 14 15 -5 10 -11 10 -14 2 -9 -7 4 -13 3 -13 -3 0
-5 9 -9 20 -8 23 1 25 8 8 27 -11 12 -10 12 4 1 13 -10 21 -11 31 -2 10 8 14
7 14 -4 0 -8 -3 -12 -7 -10 -4 2 -7 -2 -7 -10 0 -11 4 -12 14 -4 7 6 19 9 28
6 8 -4 17 -1 21 5 4 6 3 8 -3 5 -5 -3 -10 0 -10 8 0 11 4 12 13 4 7 -6 18 -8
25 -4 8 6 8 2 0 -13 -8 -14 -8 -23 -1 -27 6 -4 9 -1 8 7 -2 8 8 13 27 14 58 2
59 2 44 21 -12 15 -12 16 1 8 23 -14 52 -17 45 -4 -4 6 2 5 14 -3 12 -7 21
-16 21 -20 0 -5 4 -8 10 -8 5 0 7 7 4 15 -5 11 -2 13 10 9 10 -4 16 -1 16 7 0
7 3 9 6 6 4 -4 2 -13 -5 -20 -8 -11 -6 -18 12 -33 l22 -19 -18 21 c-16 20 -16
22 -2 28 30 11 45 7 40 -11 -3 -10 1 -4 9 12 8 17 15 25 16 18 0 -7 10 -18 23
-24 20 -11 21 -11 8 5 -12 14 -12 16 4 10 11 -5 16 -3 12 2 -3 5 3 10 14 10
19 0 19 -1 3 -13 -15 -11 -16 -15 -4 -26 10 -9 11 -9 6 0 -4 8 2 15 19 19 14
3 25 11 25 16 0 7 4 7 13 1 6 -6 20 -9 29 -8 10 2 20 0 23 -5 2 -4 -10 -6 -28
-5 -17 2 -39 -1 -47 -5 -9 -5 6 -8 38 -6 29 2 55 -1 58 -6 3 -4 11 -8 17 -8 7
0 4 5 -5 11 -10 5 -18 18 -17 27 0 11 2 12 6 4 2 -7 14 -17 26 -24 21 -11 21
-10 7 7 -11 14 -11 17 -1 11 8 -5 17 -3 22 5 7 12 9 12 9 0 0 -10 3 -11 13 -2
10 8 14 7 14 -3 0 -8 -8 -13 -19 -11 -10 2 -18 -1 -18 -7 0 -5 6 -8 14 -5 7 3
19 0 26 -6 10 -9 11 -9 6 0 -7 12 48 13 60 0 4 -4 12 -7 18 -7 6 0 3 5 -6 11
-10 5 -18 18 -17 27 0 11 2 12 6 4 2 -7 14 -17 26 -24 21 -11 21 -10 7 7 -11
14 -11 17 -1 11 8 -5 17 -3 22 5 7 12 9 12 9 0 0 -10 3 -11 13 -2 10 8 14 7
14 -3 0 -8 -8 -13 -19 -11 -10 2 -18 -1 -18 -7 0 -5 6 -8 14 -5 7 3 19 0 26
-6 10 -9 11 -9 6 1 -4 6 -2 12 3 12 6 0 11 8 12 18 0 10 3 12 6 4 2 -7 14 -17
26 -24 20 -10 21 -10 8 6 -12 14 -12 16 4 10 13 -5 16 -4 11 4 -11 18 0 14 15
-5 10 -11 10 -14 2 -9 -7 4 -13 3 -13 -3 0 -5 9 -9 20 -8 23 1 25 8 8 27 -11
12 -10 12 5 1 12 -10 20 -11 30 -2 10 8 14 7 14 -4 0 -8 -3 -12 -7 -10 -4 2
-7 -2 -7 -10 0 -11 4 -12 14 -4 7 6 19 9 28 6 8 -4 17 -1 21 5 4 6 3 8 -3 5
-5 -3 -10 0 -10 8 0 11 4 12 13 4 7 -6 18 -8 25 -4 8 6 8 2 0 -13 -8 -14 -8
-23 -1 -27 6 -4 9 -1 8 7 -2 8 8 13 27 14 58 2 59 2 44 22 -12 15 -12 16 2 5
9 -7 20 -9 24 -5 5 4 4 1 0 -7 -6 -11 -4 -13 9 -8 10 4 24 7 32 7 9 0 12 5 9
11 -4 6 3 5 14 -3 18 -11 23 -11 31 2 5 8 10 10 10 4 0 -5 -5 -15 -11 -21 -8
-8 -7 -13 2 -18 7 -5 10 -4 5 3 -8 13 25 25 48 16 11 -4 16 -1 17 12 0 11 3
14 6 6 2 -7 14 -17 26 -24 20 -10 21 -10 8 6 -12 14 -12 16 4 10 13 -5 16 -4
11 4 -11 18 0 14 15 -5 10 -11 10 -14 2 -9 -7 4 -13 3 -13 -2 0 -6 11 -9 24
-8 23 1 24 2 8 21 -16 19 -16 19 1 6 14 -11 20 -11 33 -1 12 11 15 11 12 0 -2
-7 3 -15 11 -18 8 -2 11 0 7 6 -3 6 -1 14 5 18 7 4 9 3 6 -3 -4 -6 5 -15 20
-22 24 -11 25 -10 13 4 -11 13 -10 14 5 9 13 -5 16 -4 11 4 -11 18 0 14 15 -5
10 -11 10 -14 2 -9 -7 4 -13 3 -13 -3 0 -5 9 -9 20 -8 23 1 25 7 8 27 -7 8 -3
6 10 -4 21 -18 22 -18 22 -1 0 18 1 18 15 -1 8 -10 15 -14 15 -9 0 6 5 3 11
-5 9 -13 10 -13 6 0 -2 8 -10 14 -16 12 -7 -1 -10 2 -6 7 3 6 13 7 22 4 9 -4
14 -2 10 3 -3 6 9 9 31 8 29 -3 33 -1 19 7 -9 6 -21 8 -25 5 -5 -3 -9 1 -9 9
0 8 8 12 21 9 18 -3 16 0 -8 21 -34 29 -28 33 12 8 22 -15 25 -15 15 -2 -7 9
-9 19 -5 23 4 4 1 6 -7 4 -7 -2 -15 2 -18 9 -3 7 4 10 19 7 l23 -5 -23 13
c-12 8 -20 17 -16 21 4 4 14 1 23 -6 14 -10 14 -10 3 5 -10 13 -10 17 0 21 10
4 10 6 1 6 -7 1 -13 6 -13 12 0 5 4 8 8 5 5 -3 9 1 9 9 0 8 -4 12 -8 10 -3 -3
-9 5 -12 17 -5 18 -8 19 -22 8 -13 -11 -15 -10 -9 3 3 8 12 18 20 21 10 4 13
2 8 -7 -5 -8 -2 -7 9 2 19 15 23 26 6 15 -8 -5 -10 1 -7 20 4 20 2 24 -7 16
-10 -8 -15 -7 -21 1 -4 8 -3 9 4 5 7 -4 12 -1 12 9 0 10 5 13 12 9 7 -5 8 -3
3 6 -6 10 -3 12 11 7 18 -7 18 -6 1 7 -10 7 -17 18 -16 22 4 23 -2 45 -11 39
-6 -4 -9 -1 -8 7 2 7 -2 12 -7 11 -6 -1 -11 7 -11 18 0 17 2 18 11 6 5 -7 21
-19 35 -26 24 -12 24 -11 5 4 -17 14 -18 17 -5 26 12 8 12 9 -4 7 -10 -2 -21
3 -23 10 -3 7 1 10 10 6 11 -4 13 1 9 22 -3 19 -1 25 7 20 6 -4 11 -2 11 3 0
6 -6 11 -12 11 -9 0 -8 4 2 11 13 9 13 10 0 6 -8 -2 -16 -9 -16 -15 -1 -7 -3
-15 -4 -19 -1 -5 -2 -12 -1 -17 1 -5 -5 -4 -13 4 -9 7 -16 18 -15 24 0 7 2 6
6 -2 2 -6 9 -10 13 -7 5 3 7 11 4 18 -2 7 5 23 16 35 22 23 14 31 -9 10 -10
-11 -11 -8 -6 15 6 23 5 26 -11 21 -14 -4 -15 -3 -6 4 8 5 13 12 13 16 -3 18
0 26 7 26 5 0 9 -7 9 -15 0 -8 -5 -11 -11 -8 -6 3 -7 2 -3 -2 12 -14 35 -14
33 0 -1 7 -8 20 -15 29 -8 9 -11 19 -8 23 4 3 2 12 -3 19 -6 6 -9 18 -8 25 2
8 -2 13 -7 12 -6 -1 -11 7 -11 18 0 17 2 18 11 6 5 -7 21 -19 35 -26 24 -12
24 -11 5 4 -17 14 -18 17 -5 26 12 8 12 9 -4 7 -10 -2 -21 3 -23 10 -3 7 1 10
10 6 11 -4 13 1 9 22 -3 19 -1 25 7 20 6 -4 11 -2 11 3 0 6 -6 11 -12 11 -9 0
-8 4 2 11 13 9 13 10 0 6 -8 -2 -16 -9 -16 -15 -1 -7 -3 -15 -4 -19 -1 -5 -2
-12 -1 -17 1 -5 -5 -4 -13 4 -9 7 -16 18 -15 24 0 7 2 6 6 -2 2 -6 9 -10 13
-7 5 3 7 11 4 18 -2 7 5 23 16 35 22 23 14 31 -9 10 -10 -11 -11 -8 -6 15 6
23 5 26 -11 21 -14 -4 -15 -3 -6 4 8 5 13 12 13 16 -3 18 0 26 7 26 5 0 9 -7
9 -15 0 -8 -5 -11 -11 -8 -6 3 -7 2 -3 -2 12 -14 35 -14 33 0 -1 7 -8 20 -15
29 -8 9 -11 19 -8 23 4 3 2 12 -3 19 -6 6 -9 18 -8 25 2 8 -2 13 -7 12 -6 -1
-11 7 -11 18 0 17 2 18 11 6 5 -7 21 -19 35 -26 24 -12 24 -11 5 4 -17 14 -18
17 -5 26 12 8 12 9 -4 7 -10 -2 -21 3 -23 10 -3 7 1 10 10 6 11 -4 13 1 9 22
-3 19 -1 25 7 20 6 -4 11 -2 11 3 0 6 -6 11 -12 11 -9 0 -8 4 2 11 13 9 13 10
0 6 -8 -2 -16 -9 -16 -15 -1 -7 -3 -15 -4 -19 -1 -5 -2 -12 -1 -17 1 -5 -5 -4
-13 4 -9 7 -16 18 -15 24 0 7 2 6 6 -2 2 -6 9 -10 13 -7 5 3 7 11 4 18 -2 7 5
23 16 35 22 23 14 31 -9 10 -10 -11 -11 -8 -6 15 6 23 5 26 -11 21 -14 -4 -15
-3 -6 4 8 5 13 12 13 16 -3 18 0 26 7 26 5 0 9 -7 9 -15 0 -8 -5 -11 -11 -8
-6 3 -7 2 -3 -2 12 -14 35 -14 33 0 -1 7 -8 20 -15 29 -8 9 -11 19 -8 23 4 3
2 12 -3 19 -6 6 -9 18 -8 25 2 8 -2 13 -7 12 -6 -1 -11 7 -11 18 0 17 2 18 11
6 5 -7 21 -19 35 -26 24 -12 24 -11 5 4 -17 14 -18 17 -5 26 12 8 12 9 -4 7
-10 -2 -21 3 -23 10 -3 7 1 10 10 6 11 -4 13 1 9 22 -3 19 -1 25 7 20 6 -4 11
-2 11 3 0 6 -6 11 -12 11 -9 0 -8 4 2 11 13 9 13 10 0 6 -8 -2 -16 -9 -16 -15
-1 -7 -3 -15 -4 -19 -1 -5 -2 -12 -1 -17 1 -5 -5 -4 -13 4 -9 7 -16 18 -15 24
0 7 2 6 6 -2 2 -6 9 -10 13 -7 5 3 7 11 4 18 -2 7 5 23 16 35 22 23 14 31 -9
10 -10 -11 -11 -8 -6 15 6 23 5 26 -11 21 -14 -4 -15 -3 -6 4 8 5 13 12 13 16
-3 18 0 26 7 26 5 0 9 -7 9 -15 0 -8 -5 -11 -11 -8 -6 3 -7 2 -3 -2 12 -14 35
-14 33 0 -1 7 -8 20 -15 29 -8 9 -11 19 -8 23 4 3 2 12 -3 19 -6 6 -9 18 -8
25 2 8 -2 13 -7 12 -6 -1 -11 7 -11 18 0 17 2 18 11 6 5 -7 21 -19 35 -26 24
-12 24 -11 5 4 -17 14 -18 17 -5 26 12 8 12 9 -4 7 -10 -2 -21 3 -23 10 -3 7
1 10 10 6 11 -4 13 1 9 22 -3 19 -1 25 7 20 6 -4 11 -2 11 3 0 6 -6 11 -12 11
-9 0 -8 4 2 11 13 9 13 10 0 6 -8 -2 -16 -9 -16 -15 -1 -7 -3 -15 -4 -19 -1
-5 -2 -12 -1 -17 1 -5 -5 -4 -13 4 -9 7 -16 18 -15 24 0 7 2 6 6 -2 2 -6 9
-10 13 -7 5 3 7 11 4 18 -2 7 5 23 16 35 22 23 14 31 -9 10 -10 -11 -11 -8 -6
15 6 23 5 26 -11 21 -14 -4 -15 -3 -6 4 8 5 13 12 13 16 -3 18 0 26 7 26 5 0
9 -7 9 -15 0 -8 -5 -11 -11 -8 -6 3 -7 2 -3 -2 12 -14 35 -14 33 0 -1 7 -8 20
-15 29 -8 9 -11 19 -8 23 4 3 2 12 -3 19 -6 6 -9 18 -8 25 2 8 -2 13 -7 12 -6
-1 -11 7 -11 18 0 17 2 18 11 6 5 -7 21 -19 35 -26 24 -12 24 -11 5 4 -17 14
-18 17 -5 26 12 8 12 9 -4 7 -10 -2 -21 3 -23 10 -3 7 1 10 10 6 11 -4 13 1 9
22 -3 19 -1 25 7 20 6 -4 11 -2 11 3 0 6 -6 11 -12 11 -9 0 -8 4 2 11 13 9 13
10 0 6 -8 -2 -16 -9 -16 -15 -1 -7 -3 -15 -4 -19 -1 -5 -2 -12 -1 -17 1 -5 -5
-4 -13 4 -9 7 -16 18 -15 24 0 7 2 6 6 -2 2 -6 9 -10 13 -7 5 3 7 11 4 18 -2
7 5 23 16 35 22 23 14 31 -9 10 -10 -11 -11 -8 -6 15 6 23 5 26 -11 21 -14 -4
-15 -3 -6 4 8 5 13 12 13 16 -3 18 0 26 7 26 5 0 9 -7 9 -15 0 -8 -5 -11 -11
-8 -6 3 -7 2 -3 -2 12 -14 35 -14 33 0 -1 7 -8 20 -15 29 -8 9 -11 19 -8 23 4
3 2 12 -3 18 -6 7 -8 20 -4 29 5 12 11 13 27 5 22 -10 22 -10 2 6 -17 14 -18
17 -5 26 12 8 12 9 -4 7 -10 -2 -21 3 -23 10 -3 7 1 10 10 6 8 -3 18 0 23 7 4
8 3 10 -4 5 -16 -10 -15 7 0 22 10 10 10 15 -1 21 -9 6 -10 10 -2 14 7 3 7 5
-1 3 -7 -2 -14 -12 -14 -24 -1 -12 -2 -25 -3 -28 -2 -11 -31 18 -31 30 0 6 5
4 10 -4 11 -17 12 -16 14 22 0 14 5 30 10 35 5 4 7 3 3 -3 -3 -6 0 -11 7 -11
7 0 13 6 13 13 0 7 -5 10 -10 7 -6 -4 -8 5 -5 21 4 20 2 24 -7 16 -10 -8 -15
-7 -21 1 -4 8 -3 9 4 5 7 -4 12 -1 12 9 0 9 4 14 9 10 5 -3 12 -1 15 4 4 5 2
12 -4 16 -5 3 -10 11 -10 17 0 6 7 5 18 -3 15 -12 16 -12 5 2 -7 9 -9 20 -5
25 4 4 -1 2 -11 -5 -10 -8 -16 -20 -13 -27 3 -7 -2 -15 -10 -18 -21 -8 -31 -7
-19 2 6 4 18 23 28 42 11 19 15 32 11 28 -4 -4 -12 -3 -19 2 -7 5 -15 7 -18 3z
m-52 -53 c3 -5 1 -10 -4 -10 -6 0 -11 5 -11 10 0 6 2 10 4 10 3 0 8 -4 11 -10z
m45 0 c0 -5 -2 -10 -4 -10 -3 0 -8 5 -11 10 -3 6 -1 10 4 10 6 0 11 -4 11 -10z
m-150 -117 c0 -3 -7 -3 -15 1 -13 5 -20 -5 -16 -26 0 -5 -3 -8 -9 -8 -13 0
-13 6 0 30 9 17 40 19 40 3z m170 -129 c0 -8 -4 -14 -8 -14 -4 0 -8 9 -8 19 0
11 4 17 8 15 4 -3 8 -12 8 -20z m-2 -75 c-3 -8 -7 -3 -11 10 -4 17 -3 21 5 13
5 -5 8 -16 6 -23z m-390 -14 c-3 -3 -9 2 -12 12 -6 14 -5 15 5 6 7 -7 10 -15
7 -18z m-2217 -18 c-10 -9 -11 -8 -5 6 3 10 9 15 12 12 3 -3 0 -11 -7 -18z
m2109 -87 c0 -5 -2 -10 -4 -10 -3 0 -8 5 -11 10 -3 6 -1 10 4 10 6 0 11 -4 11
-10z m-2114 -116 c-21 -20 -28 -17 -14 5 7 11 16 17 20 15 5 -3 2 -12 -6 -20z
m2021 20 c-3 -3 -12 -4 -19 -1 -8 3 -5 6 6 6 11 1 17 -2 13 -5z m-1767 -14 c0
-5 -2 -10 -4 -10 -3 0 -8 5 -11 10 -3 6 -1 10 4 10 6 0 11 -4 11 -10z m1714
-18 c-6 -4 -10 -15 -8 -25 2 -15 0 -16 -12 -6 -11 9 -12 15 -3 25 6 8 17 14
23 14 8 0 8 -2 0 -8z m644 -73 c-3 -8 -7 -3 -11 10 -4 17 -3 21 5 13 5 -5 8
-16 6 -23z m-2598 17 c0 -3 -4 -8 -10 -11 -5 -3 -10 -1 -10 4 0 6 5 11 10 11
6 0 10 -2 10 -4z m1887 -31 c4 -4 3 -6 -3 -2 -11 6 -71 -52 -66 -66 1 -4 -2
-6 -8 -2 -5 3 -10 1 -10 -4 0 -6 -5 -11 -12 -11 -6 0 -2 10 10 23 11 12 21 25
21 30 1 4 3 6 4 5 8 -6 37 25 32 32 -7 11 22 6 32 -5z m-1397 -130 c9 -11 10
-19 3 -26 -8 -8 -11 -6 -10 7 1 12 -4 19 -15 18 -10 -1 -15 2 -12 7 8 13 20
11 34 -6z m-494 -15 c0 -12 -4 -16 -9 -11 -5 5 -6 14 -3 20 10 15 12 14 12 -9z
m1759 1 c3 -5 2 -12 -3 -15 -5 -3 -9 1 -9 9 0 17 3 19 12 6z m-1771 -53 c-3
-4 -11 -8 -17 -8 -7 0 -6 4 3 10 11 7 11 10 2 10 -7 0 -10 5 -6 11 4 8 9 7 15
-2 4 -7 5 -17 3 -21z m560 13 c12 -13 14 -21 6 -26 -6 -3 -9 -1 -8 6 2 7 -8
18 -22 26 -16 8 -19 13 -9 13 9 0 24 -9 33 -19z m70 -70 c-4 -3 -9 -1 -11 6
-2 7 -10 11 -16 9 -7 -1 -9 -1 -4 1 4 3 4 10 0 16 -3 7 3 3 15 -7 12 -11 19
-22 16 -25z m1984 -52 c-3 -8 -7 -3 -11 10 -4 17 -3 21 5 13 5 -5 8 -16 6 -23z
m-1879 -53 c11 -14 6 -15 -27 -7 -4 1 8 21 12 21 2 0 9 -6 15 -14z m-735 -20
c-3 -9 -10 -16 -15 -16 -5 0 -4 9 3 20 14 22 21 20 12 -4z m1489 -19 c3 -8 1
-20 -4 -28 -5 -8 -9 -9 -10 -4 0 6 -2 18 -4 28 -4 20 10 23 18 4z m-693 -22
c11 -16 11 -18 0 -8 -11 10 -17 10 -28 0 -13 -10 -14 -9 -1 10 7 12 14 21 14
20 0 -1 7 -11 15 -22z m-790 11 c0 -2 -7 -7 -16 -10 -8 -3 -12 -2 -9 4 6 10
25 14 25 6z m845 -56 c3 -5 1 -10 -4 -10 -6 0 -11 5 -11 10 0 6 2 10 4 10 3 0
8 -4 11 -10z m-851 -34 c-3 -9 -10 -16 -15 -16 -5 0 -4 9 3 20 14 22 21 20 12
-4z m2614 -127 c-3 -8 -7 -3 -11 10 -4 17 -3 21 5 13 5 -5 8 -16 6 -23z
m-2602 1 c0 -12 -4 -16 -9 -11 -5 5 -6 14 -3 20 10 15 12 14 12 -9z m-12 -52
c-3 -4 -11 -8 -17 -8 -7 0 -6 4 3 10 11 7 11 10 2 10 -7 0 -10 5 -6 11 4 8 9
7 15 -2 4 -7 5 -17 3 -21z m1256 18 c0 -3 -4 -8 -10 -11 -5 -3 -10 -1 -10 4 0
6 5 11 10 11 6 0 10 -2 10 -4z m-125 -96 c3 -5 1 -10 -4 -10 -6 0 -11 5 -11
10 0 6 2 10 4 10 3 0 8 -4 11 -10z m-1129 -106 c-21 -20 -28 -17 -14 5 7 11
16 17 20 15 5 -3 2 -12 -6 -20z m2612 -85 c-3 -8 -7 -3 -11 10 -4 17 -3 21 5
13 5 -5 8 -16 6 -23z m-2598 17 c0 -3 -4 -8 -10 -11 -5 -3 -10 -1 -10 4 0 6 5
11 10 11 6 0 10 -2 10 -4z m-4 -176 c0 -12 -4 -16 -9 -11 -5 5 -6 14 -3 20 10
15 12 14 12 -9z m-12 -52 c-3 -4 -11 -8 -17 -8 -7 0 -6 4 3 10 11 7 11 10 2
10 -7 0 -10 5 -6 11 4 8 9 7 15 -2 4 -7 5 -17 3 -21z m2614 -109 c-3 -8 -7 -3
-11 10 -4 17 -3 21 5 13 5 -5 8 -16 6 -23z m-2614 -73 c-3 -9 -10 -16 -15 -16
-5 0 -4 9 3 20 14 22 21 20 12 -4z m6 -30 c0 -2 -7 -7 -16 -10 -8 -3 -12 -2
-9 4 6 10 25 14 25 6z m-6 -90 c-3 -9 -10 -16 -15 -16 -5 0 -4 9 3 20 14 22
21 20 12 -4z m2631 -122 c1 -11 -10 -28 -24 -39 -26 -18 -26 -18 -10 1 25 30
32 57 14 50 -10 -3 -13 -2 -10 5 10 16 28 5 30 -17z m-2619 -4 c0 -12 -4 -16
-9 -11 -5 5 -6 14 -3 20 10 15 12 14 12 -9z m-12 -52 c-3 -4 -11 -8 -17 -8 -7
0 -6 4 3 10 11 7 11 10 2 10 -7 0 -10 5 -6 11 4 8 9 7 15 -2 4 -7 5 -17 3 -21z
m2626 -32 c0 -2 -7 -7 -16 -10 -8 -3 -12 -2 -9 4 6 10 25 14 25 6z m4 -90 c2
-14 -1 -23 -5 -20 -5 3 -9 0 -9 -6 0 -6 -5 -8 -10 -5 -6 4 -5 12 4 21 9 8 12
22 9 32 -3 9 -3 14 1 10 4 -3 9 -18 10 -32z m-2499 -196 c3 -5 1 -10 -4 -10
-6 0 -11 5 -11 10 0 6 2 10 4 10 3 0 8 -4 11 -10z m389 -1 c3 -3 -6 -5 -19 -5
-14 0 -25 4 -25 8 0 8 36 6 44 -3z m162 -1 c3 -4 -1 -5 -10 -4 -8 1 -18 5 -22
8 -3 4 1 5 10 4 8 -1 18 -5 22 -8z m409 2 c3 -5 1 -10 -4 -10 -6 0 -11 5 -11
10 0 6 2 10 4 10 3 0 8 -4 11 -10z m551 -2 c3 -4 -1 -5 -10 -4 -8 1 -18 5 -22
8 -3 4 1 5 10 4 8 -1 18 -5 22 -8z m409 2 c3 -5 1 -10 -4 -10 -6 0 -11 5 -11
10 0 6 2 10 4 10 3 0 8 -4 11 -10z"/>
<path d="M2637 2655 c3 -8 9 -12 14 -9 12 7 11 11 -5 17 -10 4 -13 1 -9 -8z"/>
<path d="M2600 2641 c0 -6 4 -13 10 -16 6 -3 7 1 4 9 -7 18 -14 21 -14 7z"/>
<path d="M2530 2579 c0 -5 5 -7 10 -4 6 3 10 8 10 11 0 2 -4 4 -10 4 -5 0 -10
-5 -10 -11z"/>
<path d="M2510 2519 c0 -5 5 -7 10 -4 6 3 10 8 10 11 0 2 -4 4 -10 4 -5 0 -10
-5 -10 -11z"/>
<path d="M2450 2499 c0 -5 5 -7 10 -4 6 3 10 8 10 11 0 2 -4 4 -10 4 -5 0 -10
-5 -10 -11z"/>
<path d="M2780 2401 c0 -10 19 -25 25 -20 1 2 -3 10 -11 17 -8 7 -14 8 -14 3z"/>
<path d="M108 2358 c5 -5 16 -8 23 -6 8 3 3 7 -10 11 -17 4 -21 3 -13 -5z"/>
<path d="M355 2200 c3 -5 8 -10 11 -10 2 0 4 5 4 10 0 6 -5 10 -11 10 -5 0 -7
-4 -4 -10z"/>
<path d="M427 2159 c7 -7 15 -10 18 -7 3 3 -2 9 -12 12 -14 6 -15 5 -6 -5z"/>
<path d="M2780 2081 c0 -10 19 -25 25 -20 1 2 -3 10 -11 17 -8 7 -14 8 -14 3z"/>
<path d="M116 2041 c-3 -5 1 -11 9 -14 9 -4 12 -1 8 9 -6 16 -10 17 -17 5z"/>
<path d="M110 1956 c0 -2 7 -9 15 -16 9 -7 15 -8 15 -2 0 5 -7 12 -15 16 -8 3
-15 4 -15 2z"/>
<path d="M1790 1840 c0 -5 5 -10 11 -10 5 0 7 5 4 10 -3 6 -8 10 -11 10 -2 0
-4 -4 -4 -10z"/>
<path d="M116 1762 c-3 -5 1 -9 9 -9 8 0 15 4 15 9 0 4 -4 8 -9 8 -6 0 -12 -4
-15 -8z"/>
<path d="M2780 1761 c0 -10 19 -25 25 -20 1 2 -3 10 -11 17 -8 7 -14 8 -14 3z"/>
<path d="M1430 1460 c-13 -8 -12 -10 3 -10 9 0 17 5 17 10 0 12 -1 12 -20 0z"/>
<path d="M2780 1441 c0 -10 19 -25 25 -20 1 2 -3 10 -11 17 -8 7 -14 8 -14 3z"/>
<path d="M1393 1404 c0 -14 23 -12 37 2 7 7 2 10 -13 10 -13 0 -24 -5 -24 -12z"/>
<path d="M1236 1325 c-3 -8 -1 -15 4 -15 6 0 10 7 10 15 0 8 -2 15 -4 15 -2 0
-6 -7 -10 -15z"/>
<path d="M1316 1314 c-11 -7 -17 -16 -15 -19 3 -3 14 2 25 9 10 8 17 17 14 19
-3 3 -14 -1 -24 -9z"/>
<path d="M116 1282 c-3 -5 1 -9 9 -9 8 0 15 4 15 9 0 4 -4 8 -9 8 -6 0 -12 -4
-15 -8z"/>
<path d="M109 1242 c-13 -15 -12 -16 3 -4 13 10 17 10 21 0 4 -9 6 -9 6 -1 2
20 -16 24 -30 5z"/>
<path d="M2780 1121 c0 -10 19 -25 25 -20 1 2 -3 10 -11 17 -8 7 -14 8 -14 3z"/>
<path d="M116 1081 c-3 -5 1 -11 9 -14 9 -4 12 -1 8 9 -6 16 -10 17 -17 5z"/>
<path d="M110 996 c0 -2 7 -9 15 -16 9 -7 15 -8 15 -2 0 5 -7 12 -15 16 -8 3
-15 4 -15 2z"/>
<path d="M116 802 c-3 -5 1 -9 9 -9 8 0 15 4 15 9 0 4 -4 8 -9 8 -6 0 -12 -4
-15 -8z"/>
<path d="M2780 801 c0 -10 19 -25 25 -20 1 2 -3 10 -11 17 -8 7 -14 8 -14 3z"/>
<path d="M102 110 c7 -11 19 -20 27 -20 11 0 9 6 -7 20 -12 11 -24 20 -27 20
-3 0 0 -9 7 -20z"/>
<path d="M2753 65 c0 -7 6 -11 14 -8 7 3 13 6 13 8 0 2 -6 5 -13 8 -8 3 -14
-1 -14 -8z"/>
<path d="M170 58 c0 -10 17 -10 24 0 3 5 -1 9 -9 9 -8 0 -15 -4 -15 -9z"/>
<path d="M324 56 c1 -8 5 -18 8 -22 4 -3 5 1 4 10 -1 8 -5 18 -8 22 -4 3 -5
-1 -4 -10z"/>
<path d="M350 60 c0 -5 5 -10 11 -10 5 0 7 5 4 10 -3 6 -8 10 -11 10 -2 0 -4
-4 -4 -10z"/>
<path d="M550 62 c0 -5 6 -15 14 -21 12 -10 14 -9 12 5 -3 19 -26 33 -26 16z"/>
<path d="M590 60 c0 -5 5 -10 11 -10 5 0 7 5 4 10 -3 6 -8 10 -11 10 -2 0 -4
-4 -4 -10z"/>
<path d="M1284 56 c1 -8 5 -18 8 -22 4 -3 5 1 4 10 -1 8 -5 18 -8 22 -4 3 -5
-1 -4 -10z"/>
<path d="M1310 60 c0 -5 5 -10 11 -10 5 0 7 5 4 10 -3 6 -8 10 -11 10 -2 0 -4
-4 -4 -10z"/>
<path d="M2300 60 c0 -5 5 -10 11 -10 5 0 7 5 4 10 -3 6 -8 10 -11 10 -2 0 -4
-4 -4 -10z"/>
<path d="M496 38 c3 -5 10 -6 15 -3 13 9 11 12 -6 12 -8 0 -12 -4 -9 -9z"/>
<path d="M976 38 c3 -5 10 -6 15 -3 13 9 11 12 -6 12 -8 0 -12 -4 -9 -9z"/>
<path d="M1456 38 c3 -5 10 -6 15 -3 13 9 11 12 -6 12 -8 0 -12 -4 -9 -9z"/>
<path d="M1936 38 c3 -5 10 -6 15 -3 13 9 11 12 -6 12 -8 0 -12 -4 -9 -9z"/>
<path d="M2525 40 c-3 -6 1 -7 9 -4 18 7 21 14 7 14 -6 0 -13 -4 -16 -10z"/>
<path d="M2679 33 c-13 -16 -12 -17 4 -4 16 13 21 21 13 21 -2 0 -10 -8 -17
-17z"/>
</g>
</svg>
